<svg xmlns="http://www.w3.org/2000/svg" width="50" height="46" viewBox="0 0 50 46" fill="none"><path d="M49.9316 17.7748C49.2342 18.6773 48.8161 19.6907 48.6525 20.8661C48.6014 21.2467 48.5743 21.6417 48.5743 22.0558C48.5743 23.0932 47.7317 23.9358 46.6944 23.9358C45.6586 23.9358 44.8152 23.0932 44.8152 22.0558C44.8152 21.8699 44.8248 21.6856 44.8423 21.5076C44.9596 20.2788 45.4759 19.259 46.3257 18.6023C47.071 18.0286 48.0525 17.7365 49.1887 17.7365C49.4305 17.7365 49.6779 17.7485 49.9316 17.7748Z" fill="#EE3338"></path><path d="M39.3161 34.9307C39.0304 35.6847 38.811 36.2609 38.9243 36.7715V36.7739C38.9474 36.8673 38.9801 36.9575 39.024 37.0476C39.5315 38.0594 39.7709 39.2133 39.7709 43.0354C39.7709 44.7343 38.5828 45.3391 37.4672 45.3391H33.8773C32.9963 45.3391 32.3301 44.6752 32.3301 43.7919C32.3301 43.1894 32.3301 42.3652 32.8407 41.5768C33.0362 41.2712 33.3107 40.9695 33.689 40.6895C33.9563 40.4924 34.0656 40.1461 33.9619 39.8317C33.8581 39.5165 33.5645 39.3034 33.2317 39.3034C31.3374 39.3034 29.491 37.1857 29.1183 34.5812C29.0585 34.1607 28.6691 33.8686 28.2501 33.9285C27.8296 33.9875 27.5384 34.3777 27.5974 34.7982C27.6206 34.965 27.6517 35.1302 27.6836 35.2929C27.7817 35.7693 27.9198 36.2281 28.0914 36.6638C25.9888 36.75 24.1591 36.2074 22.5241 35.0129C22.2919 34.8445 21.9799 34.819 21.7229 34.949C21.466 35.0799 21.3024 35.3456 21.3024 35.6329V43.7919C21.3024 44.6465 20.6098 45.3391 19.7552 45.3391H16.4972C15.7216 45.3391 15.0768 44.7654 14.9675 44.0209C14.9635 43.9914 14.9595 43.9611 14.9579 43.9323C14.9523 43.886 14.95 43.8382 14.95 43.7919C14.95 42.9277 15.163 42.2981 15.5835 41.9223C15.9083 41.6303 16.3823 41.4555 16.9943 41.4012C17.4188 41.3637 17.73 40.9911 17.6917 40.5682C17.6917 40.565 17.6917 40.5634 17.6893 40.5594C17.6534 40.1908 17.359 39.9083 17.0023 39.8716C16.9568 39.8676 16.9065 39.8676 16.8578 39.8716C16.4381 39.9099 16.0519 39.9929 15.7008 40.1173V33.4082C16.1285 33.488 16.5626 33.5518 17.0023 33.5957C17.5864 33.6596 18.1769 33.6899 18.7761 33.6899H18.7857C22.2935 33.6883 25.5914 32.6517 28.46 30.8316C31.3278 29.0115 33.7656 26.4102 35.5514 23.2806C37.784 23.4841 39.2602 25.2388 39.8651 27.1451C39.9337 27.3669 39.9935 27.5912 40.0398 27.8138C40.2218 28.6915 40.2968 29.4919 40.3007 30.2236L40.063 32.544C39.8595 33.5 39.5619 34.2867 39.3161 34.9307Z" fill="#FFEECE"></path><path d="M39.8642 27.1449C38.3744 25.2769 36.2862 25.7358 33.4671 28.689C30.0486 32.2733 25.4756 34.3823 20.5994 34.3823H20.597C18.8901 34.3823 17.2432 34.1174 15.7 33.6203V33.408C16.6982 33.594 17.7251 33.6897 18.7752 33.6897H18.7848C22.2926 33.6881 25.5905 32.6508 28.4591 30.8315C31.327 29.0113 33.7647 26.41 35.5505 23.2805C37.7832 23.484 39.2594 25.2386 39.8642 27.1449Z" fill="white"></path><path d="M11.9385 41.6469C11.9385 44.7318 9.43691 47.231 6.35364 47.231C3.26877 47.231 0.768799 44.7318 0.768799 41.6469C0.768799 40.6623 1.02414 39.7358 1.47339 38.9323C2.42614 37.2191 4.25344 36.0621 6.35364 36.0621C8.60145 36.0621 10.5429 37.3923 11.4254 39.3097C11.7557 40.0207 11.9385 40.8115 11.9385 41.6469Z" fill="#EE3338"></path><path d="M6.48931 43.1515C4.45295 43.1515 2.69666 41.9554 1.88276 40.2279C1.81413 40.5167 1.77344 40.8175 1.77344 41.1279C1.77344 43.2768 3.51616 45.0195 5.66503 45.0195C7.42849 45.0195 8.91587 43.8458 9.39384 42.2379C8.56956 42.8124 7.56973 43.1515 6.48931 43.1515Z" fill="#FFC32D"></path><path d="M2.0346 43.0473C2.0346 39.9632 4.53537 37.4625 7.61943 37.4625C8.92089 37.4625 10.1178 37.9093 11.0674 38.6554C10.0771 37.097 8.33599 36.0621 6.35229 36.0621C3.26822 36.0621 0.767456 38.5628 0.767456 41.6469C0.767456 43.4295 1.60371 45.0166 2.90436 46.0388C2.35457 45.1738 2.0346 44.1485 2.0346 43.0473Z" fill="white"></path><path d="M6.35246 48C2.84947 48 0 45.1505 0 41.6475C0 39.8968 0.733314 38.206 2.01163 37.0099C2.32043 36.7194 2.80718 36.7354 3.09684 37.045C3.38649 37.3546 3.37053 37.8405 3.06093 38.1302C2.07786 39.051 1.53605 40.3006 1.53605 41.6475C1.53605 44.3031 3.69689 46.464 6.35246 46.464C9.00883 46.464 11.1697 44.3031 11.1697 41.6475C11.1697 40.4514 10.7284 39.3056 9.92727 38.4182C9.6432 38.1039 9.66794 37.6179 9.98233 37.3338C10.2975 37.0498 10.7835 37.0745 11.0675 37.3889C12.1232 38.5587 12.7049 40.07 12.7049 41.6475C12.7049 45.1505 9.85545 48 6.35246 48Z" fill="#2D3448"></path><path d="M3.93229 42.2509C3.93229 42.5917 3.6562 42.8669 3.31628 42.8669C2.97555 42.8669 2.69946 42.5917 2.69946 42.2509C2.69946 41.9102 2.97555 41.6349 3.31628 41.6349C3.6562 41.6349 3.93229 41.9102 3.93229 42.2509Z" fill="white"></path><path d="M17.0014 33.5958V39.8717C16.9551 39.8677 16.9057 39.8677 16.857 39.8717C16.4365 39.91 16.051 39.993 15.7 40.1174V33.4083C16.1277 33.4881 16.5617 33.5519 17.0014 33.5958Z" fill="white"></path><path d="M14.1636 33.0487V34.7156C12.8733 34.8113 11.6357 35.6907 10.9542 36.2684C10.8425 36.3617 10.6965 36.491 10.5377 36.6426C10.5082 36.5947 10.4818 36.5485 10.4491 36.5022C10.2433 36.2189 9.97115 35.9747 9.65437 35.8319C9.58335 35.8 9.50435 35.7864 9.42376 35.8016H9.42216C9.40301 35.804 9.38705 35.8072 9.3703 35.8135C9.2147 35.859 9.10697 35.9915 9.08383 36.1415C9.07984 36.1575 9.07825 36.1742 9.07984 36.1902C9.07665 36.2317 9.08224 36.2764 9.095 36.3202L9.11096 36.3737C9.11655 36.3945 9.12213 36.4144 9.13011 36.4352C9.19714 36.6674 9.25459 36.8708 9.29529 37.0767C9.34157 37.2953 9.37588 37.5124 9.39264 37.7214C9.40062 37.8268 9.4086 37.9225 9.40461 38.0055C9.40062 38.1172 9.39264 38.2305 9.37748 38.3399C9.34716 38.5601 9.2913 38.7779 9.2123 38.983C8.89552 39.8145 8.17417 40.4728 7.33314 40.7122C6.91501 40.8318 6.47135 40.8606 6.03328 40.7896C5.5976 40.7161 5.16751 40.5494 4.78928 40.306C4.65522 40.219 4.52675 40.1249 4.40706 40.0211C4.23311 39.8719 4.07512 39.7027 3.93946 39.5224C3.64103 39.1266 3.44952 38.6702 3.40723 38.2074C3.40324 38.1547 3.39766 38.1053 3.39766 38.0534L3.39526 37.9768L3.39766 37.885C3.40564 37.7637 3.40165 37.6409 3.41681 37.5204C3.43037 37.3991 3.43835 37.2762 3.4575 37.1549L3.52294 36.7918C3.62268 36.3083 3.78785 35.8343 3.99692 35.3755C4.41743 34.4562 5.03345 33.6072 5.75878 32.8611C6.48252 32.1095 7.32516 31.4615 8.23322 30.958C8.49096 30.8144 8.75348 30.6875 9.02079 30.5718C9.407 30.8463 9.80598 31.1073 10.2145 31.3498C11.4418 32.0752 12.7664 32.6497 14.1636 33.0487Z" fill="#F5D394"></path><path d="M3.94001 39.5227C3.64237 39.1269 3.45007 38.6705 3.40778 38.2077C3.40459 38.155 3.3982 38.1055 3.3982 38.0537L3.39661 37.9771L3.3982 37.8845C3.40618 37.764 3.40219 37.6411 3.41815 37.5199C3.43092 37.3994 3.4389 37.2765 3.45805 37.1552L3.52348 36.7921C3.62322 36.3086 3.7884 35.8346 3.99746 35.3758C4.41798 34.4557 5.034 33.6075 5.76013 32.8606C6.48387 32.1098 7.3265 31.461 8.23456 30.9583C8.4915 30.8147 8.75483 30.6878 9.02134 30.5721C9.40755 30.8466 9.80732 31.1075 10.2159 31.3501C6.72724 32.2773 3.50752 36.7674 3.94001 39.5227Z" fill="white"></path><path d="M31.7918 43.9332C31.2994 44.5357 30.5949 45.115 29.915 45.115H27.7438C26.4647 45.115 25.4305 44.0793 25.4305 42.8001C25.4305 40.459 26.8589 40.04 27.3967 39.6929C26.7879 38.8695 26.1016 38.3723 25.6659 37.6582L25.6667 37.6574C26.6737 37.7068 27.9106 37.6518 29.5097 37.4786C30.4504 39.1064 31.9402 40.1677 33.4627 40.1677C31.8061 41.3926 31.791 42.9533 31.791 43.8885C31.791 43.9045 31.791 43.9173 31.7918 43.9332Z" fill="#E28536"></path><path d="M17.7045 40.5577C17.7045 41.5942 17.3246 42.3578 16.4948 42.3578C15.3242 42.3578 14.9691 43.625 14.9691 43.9761C14.9691 43.992 14.9667 44.0072 14.9667 44.0208C14.9555 43.9457 14.95 43.8683 14.95 43.7925C14.95 42.9284 15.163 42.2988 15.5835 41.9221C15.9075 41.6309 16.3823 41.4553 16.9943 41.4019C17.4188 41.3636 17.7292 40.9909 17.6909 40.5688C17.6909 40.5648 17.6909 40.5632 17.6893 40.5593L17.7045 40.5577Z" fill="white"></path><path d="M28.0897 36.6636C25.9879 36.7498 24.1582 36.2072 22.5224 35.0126C22.2902 34.8443 21.979 34.8187 21.7221 34.9496C21.4644 35.0805 21.3016 35.3454 21.3016 35.6326V43.7924C21.3016 44.6462 20.6082 45.3389 19.7544 45.3389H16.4963C15.7207 45.3389 15.0752 44.7651 14.9659 44.0207C14.9619 43.9919 14.9579 43.9616 14.9563 43.9321L14.9683 43.8268C15.3401 44.5018 16.8953 44.4563 17.7691 44.0374C20.4454 42.7551 20.4206 37.1144 20.4206 37.1144V36.4585C20.4206 35.5465 21.1587 34.8091 22.0716 34.8091C22.0716 34.8091 22.3613 34.8913 22.6988 34.9847C23.0363 35.0741 23.4209 35.1738 23.6069 35.2065C25.3192 35.5042 26.6015 35.7787 27.6828 35.2927C27.7809 35.7691 27.919 36.2279 28.0897 36.6636Z" fill="#E28536"></path><path d="M14.164 33.0816V34.7158C12.8737 34.8115 11.6361 35.6909 10.9547 36.2686C10.8429 36.3619 10.6969 36.4912 10.5381 36.6428C10.5086 36.5949 10.4823 36.5487 10.4496 36.5024C10.2437 36.2191 9.97159 35.9749 9.6548 35.8321C9.58378 35.8002 9.50479 35.7866 9.42419 35.8018C10.1735 34.4309 12.6998 33.4462 14.164 33.0816Z" fill="#FFC32D"></path><path d="M39.7706 43.0354C39.7706 44.7343 38.5825 45.3391 37.467 45.3391H33.877C32.9953 45.3391 32.329 44.6752 32.329 43.7919C32.329 43.1886 32.329 42.3652 32.8397 41.5768C33.9903 44.3433 39.1945 43.1104 38.924 36.7731C38.9472 36.8673 38.9799 36.9575 39.0238 37.0476C39.5305 38.0594 39.7706 39.2133 39.7706 43.0354Z" fill="#E28536"></path><path d="M9.08108 36.1897C9.0755 36.1666 9.06912 36.1434 9.06433 36.1203L9.08507 36.141C9.08108 36.157 9.07949 36.1737 9.08108 36.1897Z" fill="#FFC32D"></path><path d="M9.40563 38.0055C9.40164 38.1172 9.39366 38.2305 9.3785 38.3398C9.34818 38.56 9.29232 38.7779 9.21332 38.983C8.89654 39.8144 8.17519 40.4727 7.33416 40.7129C6.91523 40.8318 6.47237 40.8605 6.0343 40.7895C5.59862 40.7161 5.16853 40.5493 4.7903 40.306C4.65624 40.219 4.52777 40.1248 4.40808 40.0211L4.53894 39.4897C5.69278 40.8182 9.53011 39.0596 9.13113 36.4351C9.19816 36.6673 9.25561 36.8708 9.29631 37.0767C9.34179 37.2953 9.3769 37.5123 9.39366 37.7222C9.40164 37.8267 9.40962 37.9225 9.40563 38.0055Z" fill="#FFC32D"></path><path d="M7.44608 41.4013C7.25777 41.1659 7.14446 40.9162 7.07025 40.668C6.99844 40.4207 6.96811 40.1741 6.96572 39.9331C6.96093 39.4511 7.07663 38.9979 7.24739 38.5878C7.30884 38.4401 7.4788 38.3707 7.62562 38.4314C7.7517 38.4848 7.82112 38.6157 7.79957 38.745L7.79798 38.7561C7.73733 39.1296 7.73813 39.5054 7.82511 39.8397C7.8674 40.0065 7.92884 40.1629 8.00704 40.297C8.08604 40.4294 8.18419 40.5388 8.27675 40.6026C8.54246 40.7869 8.6079 41.1524 8.42357 41.4181C8.23924 41.6838 7.87378 41.75 7.60807 41.5649C7.56179 41.5322 7.52029 41.4939 7.48598 41.4516L7.44608 41.4013Z" fill="#2D3448"></path><path d="M4.73458 41.6366C4.68591 41.5807 4.64042 41.5201 4.59973 41.4586C4.56462 41.4004 4.54946 41.3565 4.52552 41.3038C4.50158 41.2512 4.48881 41.2065 4.47844 41.1642L4.44652 41.0341C4.41859 40.8737 4.40662 40.7237 4.40583 40.5817C4.40423 40.2968 4.43216 40.0303 4.47844 39.7686C4.52472 39.5069 4.58776 39.2507 4.67314 38.9978C4.75932 38.7456 4.86465 38.4959 5.02424 38.2573C5.11361 38.1248 5.29314 38.0897 5.4256 38.1783C5.54131 38.2565 5.5828 38.4033 5.53173 38.5278L5.52615 38.5405C5.44874 38.7281 5.40087 38.9467 5.37294 39.1677C5.34421 39.3896 5.33384 39.6162 5.33943 39.8396C5.34421 40.0622 5.36656 40.2857 5.40965 40.4867C5.43039 40.5881 5.45912 40.6782 5.48944 40.7548L5.51418 40.7979C5.52136 40.8147 5.52854 40.8275 5.53492 40.8275C5.53971 40.8283 5.54689 40.8426 5.54609 40.8338C5.5437 40.8203 5.53572 40.8075 5.52535 40.7987C5.75675 41.0174 5.76713 41.382 5.54929 41.6134C5.33065 41.8448 4.96599 41.8544 4.73458 41.6366Z" fill="#2D3448"></path><path d="M15.4209 45.8096C15.3427 45.3619 15.3522 44.9039 15.4544 44.4722C15.5549 44.0397 15.7504 43.64 16.0121 43.308C16.1111 43.182 16.293 43.1604 16.4183 43.2594C16.5252 43.3423 16.5571 43.486 16.5045 43.6033L16.5021 43.6105C16.2236 44.24 16.2651 44.9311 16.5284 45.4944C16.6657 45.7865 16.5396 46.1328 16.2483 46.27C15.9563 46.4065 15.6092 46.2812 15.4727 45.9899C15.4512 45.9421 15.4352 45.8934 15.4264 45.8447L15.4209 45.8096Z" fill="#2D3448"></path><path d="M17.2354 45.8096C17.1572 45.3619 17.1676 44.9039 17.2689 44.4722C17.3695 44.0397 17.565 43.64 17.8267 43.308C17.9256 43.182 18.1076 43.1604 18.2328 43.2594C18.3398 43.3423 18.3717 43.486 18.319 43.6033L18.3166 43.6105C18.0389 44.24 18.0796 44.9311 18.343 45.4944C18.4802 45.7865 18.3541 46.1328 18.0629 46.27C17.7716 46.4065 17.4245 46.2812 17.2873 45.9899C17.2657 45.9421 17.2506 45.8934 17.241 45.8447L17.2354 45.8096Z" fill="#2D3448"></path><path d="M32.5563 45.8096C32.4788 45.3619 32.4884 44.9039 32.5898 44.4722C32.6903 44.0397 32.8858 43.64 33.1475 43.308C33.2465 43.182 33.4284 43.1604 33.5545 43.2594C33.6606 43.3423 33.6925 43.486 33.6407 43.6033L33.6375 43.6105C33.3598 44.24 33.4005 44.9311 33.6646 45.4944C33.801 45.7865 33.675 46.1328 33.3837 46.27C33.0925 46.4065 32.7454 46.2812 32.6081 45.9899C32.5866 45.9421 32.5714 45.8934 32.5626 45.8447L32.5563 45.8096Z" fill="#2D3448"></path><path d="M34.5732 45.8096C34.495 45.3619 34.5054 44.9039 34.6067 44.4722C34.7072 44.0397 34.9027 43.64 35.1645 43.308C35.2634 43.182 35.4453 43.1604 35.5706 43.2594C35.6775 43.3423 35.7095 43.486 35.6568 43.6033L35.6544 43.6105C35.3759 44.24 35.4174 44.9311 35.6807 45.4944C35.818 45.7865 35.6919 46.1328 35.4007 46.27C35.1094 46.4065 34.7615 46.2812 34.625 45.9899C34.6035 45.9421 34.5883 45.8934 34.5788 45.8447L34.5732 45.8096Z" fill="#2D3448"></path><path d="M26.4454 44.9002C26.3672 44.4525 26.3775 43.9945 26.4789 43.5628C26.5794 43.1303 26.7749 42.7306 27.0367 42.3986C27.1356 42.2725 27.3175 42.251 27.4428 42.3499C27.5497 42.4329 27.5817 42.5765 27.529 42.6946L27.5266 42.701C27.2481 43.3306 27.2896 44.0216 27.5529 44.585C27.6902 44.877 27.5641 45.2233 27.2728 45.3606C26.9816 45.497 26.6337 45.3718 26.4972 45.0805C26.4757 45.0326 26.4605 44.984 26.451 44.9353L26.4454 44.9002Z" fill="#2D3448"></path><path d="M28.2649 44.9002C28.1875 44.4525 28.197 43.9945 28.2984 43.5628C28.3989 43.1303 28.5944 42.7306 28.8561 42.3986C28.9551 42.2725 29.137 42.251 29.2631 42.3499C29.3692 42.4329 29.4011 42.5765 29.3493 42.6946L29.3461 42.701C29.0684 43.3306 29.1091 44.0216 29.3732 44.585C29.5097 44.877 29.3836 45.2233 29.0923 45.3606C28.8011 45.497 28.454 45.3718 28.3167 45.0805C28.2952 45.0326 28.28 44.984 28.2713 44.9353L28.2649 44.9002Z" fill="#2D3448"></path><path d="M39.1484 6.42466C39.1484 7.59525 40.0972 8.54321 41.267 8.54321C42.4376 8.54321 43.3855 7.59525 43.3855 6.42466C43.3855 5.08411 43.7311 3.78186 45.0772 2.6001C41.4577 1.65453 39.1484 3.49141 39.1484 6.42466Z" fill="#EE3338"></path><path d="M49.9312 17.7748C49.2338 18.6772 48.8157 19.6906 48.6521 20.866C48.4973 20.021 48.2763 19.0651 48.0193 18.5655C46.8903 21.1158 45.8633 21.4629 44.8419 21.5076C44.9592 20.2787 45.4755 19.259 46.3253 18.6022C47.0706 18.0285 48.0521 17.7365 49.1883 17.7365C49.4301 17.7365 49.6775 17.7484 49.9312 17.7748Z" fill="#FFC32D"></path><path d="M38.681 6.41399C40.1732 6.25998 40.32 4.99204 42.113 4.00658C41.4204 5.57056 43.0402 6.74194 43.0402 6.74194L44.4031 3.62037L44.0137 2.21598L40.7804 2.73545L38.681 6.41399Z" fill="#FFC32D"></path><path d="M38.3263 10.8074C38.3263 15.4531 37.0879 19.7109 34.9973 23.2259C31.4903 29.1235 25.5767 32.9233 19.075 32.9233H19.0734C10.1939 32.9233 2.99719 25.7235 2.99719 16.8447C2.99719 14.7581 3.39457 12.7648 4.11751 10.9359L5.05829 9.25222L6.1834 7.2382C9.11346 3.3099 13.7958 0.76844 19.0734 0.76844H20.4587H38.6894C34.7252 3.67696 30.1793 12.2254 33.5251 13.8269C35.3029 14.6775 37.3074 12.4815 38.3263 10.8074Z" fill="#EE3338"></path><path d="M28.1885 11.4222C27.8566 11.9273 27.3172 12.3374 26.745 12.5169C26.4554 12.6023 26.1801 12.651 25.8753 12.667C25.5681 12.6837 25.2377 12.6566 24.8499 12.6223L24.8172 12.6183C24.7119 12.6087 24.6041 12.639 24.5196 12.7124C24.3743 12.8337 24.3352 13.0332 24.4126 13.1968C24.4262 13.2295 24.4454 13.2598 24.4677 13.2886C24.7693 13.6476 25.1994 13.9006 25.6814 14.0299C25.9104 14.0929 26.1482 14.1176 26.3876 14.1136C25.829 20.3855 23.3849 23.5837 21.3772 25.1732C19.7016 26.5018 17.9979 26.9558 16.8082 26.9558H16.8058C16.5608 26.9558 16.3358 26.9359 16.1379 26.9016C14.4678 26.6015 13.0148 25.9392 11.8035 24.9474L11.8011 24.945C9.13673 22.7586 7.63978 18.9787 7.55679 13.9852C7.89672 13.8719 8.20392 13.6979 8.45129 13.4633C8.51113 13.4091 8.56859 13.3516 8.62045 13.2886C8.68589 13.2072 8.72419 13.1018 8.71222 12.9893C8.69307 12.7643 8.49518 12.5991 8.26936 12.6183L8.23824 12.6223C7.84884 12.6566 7.51849 12.6837 7.21287 12.667C6.90806 12.651 6.63356 12.6023 6.34391 12.5169C5.76939 12.3374 5.23157 11.9273 4.89803 11.4222C4.60598 10.9785 4.4815 10.4894 4.54693 10.0186C4.58284 9.99384 4.62353 9.97149 4.67301 9.94756C4.81504 9.88452 4.99219 9.83903 5.17811 9.8151C5.55634 9.76802 5.97526 9.79994 6.37024 9.90606C6.76762 10.009 7.14585 10.1877 7.45705 10.4399C7.76825 10.6888 8.00604 11.0152 8.13052 11.3998L8.1345 11.4086C8.19196 11.5873 8.37469 11.703 8.56699 11.6687C8.77605 11.632 8.91569 11.4341 8.87979 11.2251C8.8375 10.9865 8.76009 10.7519 8.65636 10.5301V10.5277C8.52071 10.2404 8.33638 9.97149 8.11775 9.74328C7.73314 9.33393 7.25916 9.02832 6.75246 8.81686C6.35907 8.65568 5.94414 8.54476 5.51005 8.49689C5.54676 8.46816 5.58506 8.43943 5.62336 8.41071C5.87312 8.23356 6.1516 8.09552 6.41652 8.0261C6.54898 7.9854 6.67187 7.97662 6.78119 7.96865L6.99583 7.98061C7.06525 7.99338 7.13627 7.99737 7.20569 8.01333C7.75468 8.12185 8.29409 8.46816 8.79281 8.96688C9.29392 9.464 9.75274 10.0712 10.2523 10.712C10.5076 11.0312 10.7725 11.3607 11.1101 11.6935C11.2832 11.8562 11.4811 12.0214 11.734 12.1706C11.8529 12.2417 11.9934 12.3071 12.1506 12.3574C12.2543 12.4108 12.3692 12.4411 12.4945 12.4411H13.0203V14.3195C13.0203 14.3458 13.0227 14.3706 13.0243 14.3961C13.0626 14.7839 13.389 15.0871 13.7888 15.0871C14.1877 15.0871 14.5141 14.7839 14.5524 14.3961C14.5548 14.3706 14.5564 14.3458 14.5564 14.3195V12.4411H15.6711V14.3195C15.6711 14.3458 15.6735 14.3706 15.6751 14.3961C15.7142 14.7839 16.0422 15.0871 16.4395 15.0871C16.8385 15.0871 17.1657 14.7839 17.2032 14.3961C17.2056 14.3706 17.2072 14.3458 17.2072 14.3195V12.4411H18.5302V14.3195C18.5302 14.3458 18.5318 14.3706 18.5342 14.3961C18.5725 14.7839 18.8988 15.0871 19.2978 15.0871C19.6976 15.0871 20.0239 14.7839 20.0622 14.3961C20.0638 14.3706 20.0662 14.3458 20.0662 14.3195V12.4411H20.387C20.7668 12.4491 21.1067 12.3167 21.3541 12.1706C21.6079 12.0214 21.8034 11.8562 21.9781 11.6935C22.3164 11.3607 22.5813 11.0312 22.8359 10.712C23.3354 10.0712 23.7942 9.464 24.2953 8.96688C24.7925 8.46816 25.3335 8.12185 25.8833 8.01333C25.9519 7.99737 26.0229 7.99338 26.0923 7.98061L26.3054 7.96865C26.4163 7.97662 26.54 7.9854 26.6724 8.0261C26.935 8.09552 27.215 8.23356 27.4632 8.41071C27.5031 8.43943 27.5398 8.46816 27.5781 8.49689C27.1424 8.54476 26.7299 8.65568 26.3357 8.81686C25.829 9.02832 25.355 9.33393 24.9688 9.74328C24.8076 9.91085 24.6656 10.1055 24.5467 10.3106C24.3815 10.5947 24.265 10.9067 24.2092 11.2251C24.1764 11.4086 24.2834 11.5953 24.4677 11.6544C24.6696 11.7222 24.8882 11.6105 24.9536 11.4086L24.956 11.3998C25.0805 11.0152 25.3183 10.6888 25.6311 10.4399C25.9407 10.1877 26.3205 10.009 26.7163 9.90606C27.1137 9.79994 27.5318 9.76802 27.9084 9.8151C28.0968 9.83903 28.2731 9.88452 28.4151 9.94756C28.463 9.97149 28.5037 9.99384 28.5396 10.0186C28.6067 10.4894 28.4822 10.9785 28.1885 11.4222Z" fill="#F5D394"></path><path d="M15.0841 24.6679C15.3267 25.0501 15.677 25.5784 16.8404 25.5784C17.8019 25.5784 19.1592 25.2504 19.6508 24.099C20.0761 23.0999 18.9182 23.4319 18.789 23.6202C18.5273 24.0016 17.9831 24.5897 17.9831 24.5897L16.1159 24.6025L15.0841 24.6679Z" fill="white"></path><path d="M16.4397 19.334C15.5452 19.334 14.0906 20.6339 14.0906 21.2794C14.0906 21.684 15.1495 21.7407 16.4397 21.7415C17.73 21.7407 18.7881 21.684 18.7881 21.2794C18.7881 20.6339 17.3334 19.334 16.4397 19.334Z" fill="white"></path><path d="M26.3867 14.1139C25.8282 20.3858 23.3841 23.5839 21.3764 25.1734C19.7007 26.502 17.9971 26.9561 16.8074 26.9561C22.8718 24.8168 25.0717 17.6775 24.411 13.197C24.4254 13.2298 24.4437 13.2601 24.4669 13.2888C24.7685 13.6479 25.1986 13.9008 25.6806 14.0301C25.9088 14.0931 26.1474 14.1179 26.3867 14.1139Z" fill="#FFC32D"></path><path d="M11.8013 24.9453C9.13694 22.7589 7.6392 18.9783 7.55701 13.9855C7.89613 13.8722 8.20334 13.6974 8.45151 13.4628C8.59673 16.4368 9.05795 21.574 11.8013 24.9453Z" fill="white"></path><path d="M43.2632 3.12018C42.3878 3.12018 41.6346 3.34281 41.0672 3.78168C40.3251 4.35461 39.9174 5.29379 39.9174 6.42528C39.9174 7.16977 40.523 7.77621 41.2683 7.77621C42.0128 7.77621 42.6185 7.16977 42.6185 6.42528C42.6185 5.135 42.9257 4.06096 43.572 3.12896C43.4675 3.12337 43.3645 3.12018 43.2632 3.12018ZM41.2683 9.31226C39.6764 9.31226 38.3813 8.01719 38.3813 6.42528C38.3813 4.80624 39.0014 3.43617 40.1281 2.56641C41.4088 1.57695 43.2353 1.3256 45.2724 1.85783C45.5469 1.92964 45.7592 2.14668 45.8246 2.42357C45.89 2.70046 45.7983 2.99012 45.5844 3.17763C44.5822 4.05857 44.1545 5.02967 44.1545 6.42528C44.1545 8.01719 42.8594 9.31226 41.2683 9.31226Z" fill="#2D3448"></path><path d="M39.1198 0.528208C39.0169 0.212221 38.7216 -3.10526e-05 38.3897 -3.10526e-05H18.7753C18.7721 -3.10526e-05 18.7698 0.000764948 18.7674 0.000764948C13.4004 0.00315803 8.48102 2.4736 5.27007 6.77853C5.01633 7.11926 5.08655 7.59962 5.42567 7.85337C5.56372 7.9571 5.7249 8.00577 5.88449 8.00577C6.11909 8.00577 6.35049 7.89885 6.50051 7.69697C9.421 3.78144 13.8951 1.53602 18.7745 1.53602H18.7825H36.3661C33.6044 4.37352 31.0358 9.06705 31.3159 12.0546C31.4539 13.5332 32.2503 14.2098 32.8942 14.5186C34.3593 15.2192 35.8953 14.4412 37.1449 13.1876C36.1155 23.8418 28.2701 32.1541 18.7753 32.1541C18.7729 32.1541 18.7706 32.1549 18.7682 32.1549C10.3299 32.1509 3.46592 25.2845 3.46592 16.8446C3.46592 14.9016 3.82579 13.0081 4.53357 11.2175C4.68997 10.8233 4.49607 10.3773 4.10188 10.2209C3.70769 10.0653 3.26164 10.2584 3.10524 10.6526C2.32565 12.6235 1.93066 14.7077 1.93066 16.8446C1.93066 26.1336 9.48643 33.6909 18.7745 33.6909C18.7785 33.6909 18.7817 33.6901 18.7857 33.6901C29.8197 33.6837 38.795 23.4197 38.795 10.8058C38.795 10.4619 38.566 10.1594 38.2349 10.0669C37.9029 9.97352 37.5503 10.1132 37.3715 10.4068C36.5089 11.8232 34.7806 13.7191 33.5573 13.1334C33.2884 13.0049 32.9222 12.7384 32.8448 11.9117C32.5942 9.23382 35.79 3.62744 38.8437 1.3868C39.1118 1.19051 39.2228 0.844194 39.1198 0.528208Z" fill="#2D3448"></path><path d="M37.1451 13.1881C35.8963 14.4409 34.3595 15.2197 32.8944 14.5191C32.2505 14.2103 31.4541 13.5336 31.3161 12.055C31.0631 9.35318 33.1386 5.25812 35.5803 2.39987H20.7066L20.7058 2.40067C19.3453 2.40067 18.0247 2.57143 16.7631 2.88981C14.5823 4.78174 14.0054 6.98488 14.0908 7.98949C15.0842 6.02494 19.2208 2.74219 22.2522 3.825C19.7434 5.18949 18.7891 8.71722 16.9283 9.76014C19.3876 9.76014 21.0066 9.35159 22.1525 8.86325C22.4333 8.493 22.7357 8.11876 23.0853 7.76208C23.3972 7.44609 23.7491 7.14207 24.1585 6.88354C24.5662 6.6258 25.0386 6.41753 25.5429 6.31779C25.669 6.29146 25.7967 6.27869 25.9236 6.26034C26.0512 6.25156 26.1789 6.24678 26.3066 6.24199C26.593 6.25076 26.8683 6.28747 27.1181 6.35849C27.6224 6.49733 28.0644 6.72474 28.4626 7.00802C28.8584 7.29288 29.2079 7.63999 29.4984 8.04295C29.7864 8.44592 30.013 8.91112 30.1327 9.41702C30.2532 9.92132 30.2628 10.4663 30.1455 10.9722C30.0298 11.4781 29.808 11.9425 29.5207 12.3447C29.1106 12.9136 28.5775 13.3709 27.9615 13.686C27.9208 14.2622 27.8642 14.8127 27.7955 15.345C27.94 16.1174 28.1881 16.8459 28.5831 17.3813C29.3938 14.7792 30.4 13.3637 30.9203 12.7181C30.353 19.4424 31.5267 21.0599 29.1345 25.04C31.1876 24.3099 33.1035 20.9873 33.6852 19.2174C34.1281 20.7694 34.0028 22.082 33.8887 23.0827C35.637 20.2204 36.7924 16.8427 37.1451 13.1881Z" fill="#FFC32D"></path><path d="M28.1882 11.4222C27.8554 11.9265 27.3168 12.3383 26.7439 12.517C26.4542 12.6024 26.1797 12.6511 25.8749 12.6678C25.5677 12.683 25.2374 12.6567 24.8488 12.6216L24.816 12.6184C24.7123 12.6096 24.6046 12.6399 24.5184 12.7125C24.3453 12.8578 24.3229 13.1147 24.4673 13.2878C24.769 13.6477 25.1983 13.9007 25.6802 14.0307C25.9084 14.0922 26.1478 14.1177 26.3864 14.1137C25.8278 20.3848 23.3837 23.5838 21.3769 25.1741C19.3525 26.778 17.289 27.1067 16.1368 26.9008C10.7881 25.9465 7.67692 21.2474 7.55643 13.9853C7.97615 13.8456 8.34879 13.6102 8.6185 13.2878C8.68553 13.2081 8.72223 13.1011 8.71266 12.9894C8.69191 12.7644 8.49402 12.5992 8.269 12.6184L8.23788 12.6216C7.84848 12.6567 7.51813 12.683 7.21172 12.6678C6.9069 12.6511 6.63161 12.6024 6.34275 12.517C5.76903 12.3383 5.23041 11.9265 4.89847 11.4222C4.60562 10.9786 4.48034 10.4894 4.54657 10.0195C4.58248 9.99472 4.62318 9.97078 4.67265 9.94844C4.81389 9.8854 4.99023 9.83912 5.17855 9.81518C5.55598 9.7673 5.9741 9.80082 6.36988 9.90535C6.76646 10.0091 7.14549 10.187 7.45669 10.4392C7.76789 10.6889 8.00648 11.0153 8.13096 11.3999L8.13415 11.4087C8.1916 11.5882 8.37433 11.7023 8.56504 11.6688C8.7741 11.6329 8.91454 11.4334 8.87863 11.2244C8.78288 10.6738 8.5028 10.1479 8.11739 9.74257C7.73198 9.33322 7.258 9.0284 6.75051 8.81774C6.35792 8.65576 5.94458 8.54485 5.5089 8.49697C5.5464 8.46824 5.58391 8.43872 5.62301 8.41159C5.87276 8.23365 6.15125 8.0964 6.41537 8.02538C6.54783 7.98548 6.67071 7.97671 6.78083 7.96953L6.99468 7.9807C7.0641 7.99346 7.13512 7.99825 7.20374 8.01341C7.75432 8.12273 8.29374 8.46904 8.79165 8.96696C9.29277 9.46408 9.75239 10.0713 10.2511 10.7113C10.5056 11.0312 10.7706 11.3616 11.1097 11.692C11.2821 11.8571 11.4807 12.0223 11.7321 12.1707C11.8518 12.2409 11.993 12.308 12.1494 12.3582C12.2532 12.4101 12.3689 12.4428 12.4933 12.4428H13.02V14.3188C13.02 14.7425 13.3639 15.0872 13.7884 15.0872C14.2121 15.0872 14.556 14.7425 14.556 14.3188V12.4428H15.6716V14.3188C15.6716 14.7425 16.0155 15.0872 16.44 15.0872C16.8637 15.0872 17.2076 14.7425 17.2076 14.3188V12.4428H18.5298V14.3188C18.5298 14.7425 18.8737 15.0872 19.2982 15.0872C19.7219 15.0872 20.0659 14.7425 20.0659 14.3188V12.4428H20.3866C20.7665 12.4492 21.1056 12.3167 21.3537 12.1707C21.6059 12.0223 21.8038 11.8571 21.9769 11.692C22.3153 11.3616 22.5802 11.0312 22.8355 10.7113C23.3343 10.0713 23.7939 9.46408 24.2942 8.96696C24.7929 8.46904 25.3323 8.12273 25.8821 8.01341C25.9515 7.99825 26.0225 7.99346 26.092 7.9807L26.305 7.96953C26.4159 7.97671 26.538 7.98548 26.6713 8.02538C26.9346 8.0964 27.2139 8.23365 27.4628 8.41159C27.5027 8.43872 27.5394 8.46824 27.5769 8.49697C27.1421 8.54485 26.7279 8.65576 26.3353 8.81774C25.8286 9.0284 25.3547 9.33322 24.9692 9.74257C24.5838 10.1479 24.3038 10.6738 24.208 11.2244C24.1753 11.4095 24.283 11.5954 24.4673 11.6552C24.67 11.7215 24.8871 11.6106 24.9525 11.4087L24.9557 11.3999C25.0802 11.0153 25.3188 10.6889 25.63 10.4392C25.9412 10.187 26.3194 10.0091 26.716 9.90535C27.1117 9.80082 27.5307 9.7673 27.9081 9.81518C28.0956 9.83912 28.272 9.8854 28.414 9.94844C28.4627 9.97078 28.5034 9.99472 28.5393 10.0195C28.6063 10.4894 28.481 10.9786 28.1882 11.4222ZM30.1328 9.417C30.0131 8.9111 29.7865 8.4459 29.4976 8.04294C29.208 7.63997 28.8584 7.29287 28.4619 7.008C28.0645 6.72473 27.6224 6.49731 27.1181 6.35847C26.8684 6.28665 26.5923 6.25074 26.3066 6.24197C26.1781 6.24676 26.0513 6.25154 25.9236 6.26032C25.7967 6.27867 25.6683 6.29144 25.543 6.31777C25.0379 6.41752 24.5663 6.62578 24.1585 6.88352C23.7492 7.14205 23.3965 7.44607 23.0845 7.76206C22.4629 8.39722 21.9881 9.08585 21.5237 9.71065C21.2955 10.0234 21.0689 10.3219 20.8471 10.5565C20.7377 10.6714 20.6308 10.7663 20.5438 10.8262C20.4553 10.8876 20.4074 10.902 20.3866 10.9068H12.7C12.6793 10.902 12.6314 10.8876 12.542 10.8262C12.455 10.7663 12.3489 10.6714 12.2388 10.5565C12.017 10.3219 11.7911 10.0234 11.5629 9.71065C11.0985 9.08585 10.6229 8.39722 10.0013 7.76206C9.68935 7.44607 9.33745 7.14205 8.92811 6.88352C8.52035 6.62578 8.04797 6.41752 7.54287 6.31777C7.41759 6.29144 7.28992 6.27867 7.16225 6.26032C7.03537 6.25154 6.9077 6.24676 6.78003 6.24197C6.49357 6.25074 6.21827 6.28665 5.96852 6.35847C5.46421 6.49731 5.02215 6.72473 4.62397 7.008C4.22819 7.29287 3.87869 7.63997 3.58824 8.04294C3.30018 8.4459 3.07276 8.9111 2.95307 9.417C2.83338 9.92131 2.8238 10.4663 2.9411 10.9722C3.05681 11.4781 3.27863 11.9425 3.5651 12.3447C4.14281 13.145 4.95911 13.7299 5.91346 13.9988C5.94857 14.0084 5.98527 14.0172 6.02118 14.0259C6.08901 18.0811 7.01862 21.4102 8.79006 23.9213C10.4953 26.3375 12.9426 27.8911 15.8671 28.4129C16.1503 28.4632 16.4663 28.4919 16.8078 28.4919C18.3239 28.4919 20.3547 27.943 22.3304 26.3782C24.6373 24.5501 27.4588 20.8699 27.9608 13.686C28.5768 13.37 29.1098 12.9136 29.5207 12.3447C29.8072 11.9425 30.0298 11.4781 30.1447 10.9722C30.262 10.4663 30.2533 9.92131 30.1328 9.417Z" fill="#2D3448"></path><path d="M19.3866 23.4462C19.2701 23.2651 18.9724 23.1877 18.8479 23.3297C18.2208 24.0439 17.6079 24.0502 17.2241 23.9457C16.9839 23.8803 16.8236 23.6553 16.8236 23.4063V23.1007L17.8401 22.2214L18.6947 21.4801C18.8831 21.3173 18.7674 21.0077 18.5184 21.0077H16.4397H14.3603C14.1113 21.0077 13.9956 21.3173 14.1839 21.4801L15.0385 22.2214L16.0551 23.1007V23.6313C16.0551 23.7502 16.0168 23.8707 15.9306 23.9529C15.6386 24.2258 15.1024 24.0016 15.0154 24.3559C14.9779 24.5091 15.0513 24.671 15.1782 24.766C15.5309 25.0333 15.8844 25.1227 16.2379 25.1554C16.411 25.1698 16.585 25.161 16.7589 25.1602L17.019 25.1514L17.1491 25.145L17.3023 25.1347C17.7149 25.0972 18.1306 24.9982 18.524 24.7883C18.7203 24.6846 18.907 24.5474 19.0706 24.3758C19.2342 24.2066 19.369 23.9944 19.4336 23.7622C19.4624 23.66 19.4488 23.5435 19.3866 23.4462Z" fill="#2D3448"></path><path d="M22.6678 19.3502C22.5856 18.8219 22.387 18.6663 21.8284 18.7358C21.7606 18.7437 21.6951 18.7605 21.6297 18.7796C21.6281 18.7804 21.6257 18.7812 21.6241 18.782C21.2052 18.9097 20.8341 19.2552 20.5772 19.6327C20.3737 19.9311 20.1998 20.4178 20.424 20.666C20.641 20.9054 21.3153 20.5982 21.7797 20.4426C22.1228 20.3277 22.7987 20.1976 22.6678 19.3502Z" fill="white"></path><path d="M21.1687 19.0114C21.2381 19.5405 21.7241 19.9139 22.2539 19.8445C22.783 19.7743 23.1564 19.2891 23.0862 18.7593C23.0168 18.2302 22.5316 17.8568 22.0018 17.927C21.4719 17.9964 21.0993 18.4816 21.1687 19.0114Z" fill="#FFC32D"></path><path d="M22.002 17.927C20.995 18.0587 20.3782 20.0232 20.7189 20.2243C20.9455 20.3583 20.6064 20.0615 22.2542 19.8445" fill="#FFC32D"></path><path d="M23.0862 19.147C23.0774 18.6132 22.5308 18.2445 22.0017 18.3147C21.8541 18.3331 21.7209 18.3882 21.6036 18.464C20.8024 18.9491 20.3564 20.1277 20.65 20.3016C20.8766 20.4357 21.1655 19.9489 22.127 20.0615C22.6872 20.1277 23.0957 19.7207 23.0862 19.147Z" fill="#2D3448"></path><path d="M10.2131 19.3502C10.2945 18.8219 10.4931 18.6663 11.0525 18.7358C11.1195 18.7437 11.1858 18.7605 11.2512 18.7796C11.2528 18.7804 11.2544 18.7812 11.256 18.782C11.6757 18.9097 12.0468 19.2552 12.3037 19.6327C12.5072 19.9311 12.6811 20.4178 12.4569 20.666C12.2399 20.9054 11.5656 20.5982 11.1004 20.4426C10.7573 20.3277 10.0814 20.1976 10.2131 19.3502Z" fill="white"></path><path d="M11.7099 19.0114C11.6405 19.5405 11.1545 19.9139 10.6247 19.8445C10.0956 19.7743 9.7222 19.2891 9.79242 18.7593C9.86184 18.2302 10.347 17.8568 10.8768 17.927C11.4067 17.9964 11.7793 18.4816 11.7099 19.0114Z" fill="#FFC32D"></path><path d="M10.8781 17.927C11.8851 18.0587 12.502 20.0232 12.162 20.2243C11.9346 20.3583 12.2737 20.0615 10.626 19.8445" fill="#FFC32D"></path><path d="M9.79387 19.147C9.80264 18.6132 10.3492 18.2445 10.8783 18.3147C11.0259 18.3331 11.1592 18.3882 11.2765 18.464C12.0776 18.9491 12.5236 20.1277 12.23 20.3016C12.0034 20.4357 11.7145 19.9489 10.753 20.0615C10.1928 20.1277 9.78429 19.7207 9.79387 19.147Z" fill="#2D3448"></path><path d="M19.743 30.0547C20.1069 30.0276 20.4309 29.959 20.758 29.868C20.92 29.8297 21.0812 29.7667 21.24 29.7236L21.7148 29.5592C22.342 29.331 22.9532 29.0677 23.5477 28.7772C24.1413 28.4868 24.719 28.1708 25.2704 27.8077C25.8234 27.4423 26.3445 27.0361 26.832 26.5047C26.7027 27.2244 26.2663 27.8692 25.754 28.387C25.2337 28.9081 24.6201 29.323 23.9666 29.6406C23.3123 29.9582 22.6157 30.1832 21.8943 30.2901C21.7124 30.3093 21.5328 30.334 21.3501 30.3412C21.165 30.3428 20.9846 30.3532 20.8003 30.3356C20.616 30.3157 20.4349 30.3029 20.2545 30.2494C20.1644 30.2231 20.0766 30.2111 19.9904 30.1704C19.905 30.1313 19.822 30.0962 19.743 30.0547Z" fill="#FFC32D"></path><path d="M32.3269 4.47902C32.3269 5.20835 31.7357 5.79883 31.0071 5.79883C30.2778 5.79883 29.6865 5.20835 29.6865 4.47902C29.6865 3.7497 30.2778 3.15922 31.0071 3.15922C31.7357 3.15922 32.3269 3.7497 32.3269 4.47902Z" fill="white"></path><path d="M12.5973 14.396H13.0282C13.0258 14.3705 13.0202 14.3457 13.0202 14.3186V12.4434H12.4928C12.3683 12.4434 12.2526 12.4107 12.1489 12.358C11.9933 12.3086 11.852 12.2415 11.7324 12.1713C11.4802 12.0221 11.2823 11.8569 11.1092 11.6918C10.7708 11.3614 10.5059 11.0311 10.2506 10.7119C9.75264 10.0711 9.29223 9.46388 8.79191 8.96676C8.2932 8.46884 7.75378 8.12333 7.204 8.01321C7.13458 7.99805 7.06356 7.99406 6.99493 7.9805L6.78108 7.96933C6.67017 7.97651 6.54808 7.98608 6.41483 8.02598C6.1515 8.0962 5.87222 8.23345 5.62326 8.41139C5.58336 8.43852 5.54666 8.46804 5.50916 8.49677C5.94404 8.54465 6.35817 8.65636 6.75076 8.81834C7.25746 9.0282 7.73144 9.33302 8.11685 9.74236C8.33389 9.97138 8.51662 10.2387 8.65227 10.5259C10.379 11.8067 11.3645 14.396 12.5973 14.396Z" fill="white"></path><path d="M14.5572 12.4432V14.3191C14.5572 14.3455 14.5524 14.3702 14.5492 14.3958H15.6807C15.6783 14.3702 15.6727 14.3455 15.6727 14.3191V12.4432H14.5572Z" fill="white"></path><path d="M24.5452 10.3135C24.6641 10.1068 24.8069 9.91368 24.9697 9.74212C25.3543 9.33277 25.8283 9.02875 26.3358 8.8181C26.7284 8.65611 27.1417 8.5444 27.5774 8.49732C27.5391 8.4678 27.5024 8.43827 27.4633 8.41114C27.2135 8.234 26.9351 8.09675 26.6709 8.02573C26.5385 7.98584 26.4156 7.97626 26.3047 7.96908L26.0916 7.98025C26.0222 7.99382 25.9512 7.9986 25.8826 8.01297C25.332 8.12308 24.7926 8.4686 24.2947 8.96731C23.7935 9.46443 23.3339 10.0709 22.8352 10.7116C22.5807 11.0308 22.3157 11.3612 21.9766 11.6923C21.8035 11.8575 21.6056 12.0227 21.3534 12.1711C21.1053 12.3171 20.7669 12.4496 20.3863 12.4432H20.0663V14.3191C20.0663 14.3455 20.0607 14.3702 20.0583 14.3958H20.2834H20.2842C21.5904 14.3958 22.6182 11.4888 24.5452 10.3135Z" fill="white"></path><path d="M17.2071 12.4432V14.3191C17.2071 14.3455 17.2023 14.3702 17.2 14.3958H18.5373C18.5349 14.3702 18.5301 14.3455 18.5301 14.3191V12.4432H17.2071Z" fill="white"></path><path d="M8.54805 11.671V11.6702C8.36373 11.6934 8.19057 11.5824 8.13472 11.4093L8.13153 11.3997C8.00705 11.0159 7.76846 10.6895 7.45726 10.439C7.14686 10.1876 6.76783 10.0089 6.37046 9.90515C5.97467 9.80062 5.55655 9.76711 5.17912 9.81578C4.9908 9.83892 4.81446 9.886 4.67322 9.94904C4.62455 9.97058 4.58385 9.99452 4.54714 10.0201C4.5256 10.1701 4.5264 10.3225 4.54315 10.4741C6.5867 9.98415 7.50594 11.9399 8.54805 11.671Z" fill="#FFC32D"></path><path d="M28.5394 10.0195C28.5035 9.99472 28.4628 9.96999 28.4133 9.94844C28.2721 9.8854 28.0957 9.83832 27.9074 9.81518C27.53 9.76731 27.1119 9.80082 26.7161 9.90455C26.3195 10.0083 25.9405 10.187 25.6301 10.4384C25.3181 10.6889 25.0803 11.0153 24.955 11.3991L24.9518 11.4087C24.8952 11.585 24.722 11.692 24.5441 11.672C25.5838 11.9321 26.5038 9.98435 28.5434 10.4735C28.5601 10.3219 28.5609 10.1695 28.5394 10.0195Z" fill="#FFC32D"></path><path d="M3.99578 12.853C3.64708 14.1472 3.46594 15.483 3.46594 16.8451C3.46594 20.2492 4.58387 23.3963 6.47022 25.9409C5.29723 23.7107 4.62935 21.1732 4.62935 18.4777C4.62935 16.8443 4.87592 15.27 5.32835 13.785C4.82804 13.5608 4.378 13.2448 3.99578 12.853Z" fill="white"></path><path d="M36.3671 1.53587H18.7827H18.7755C14.4905 1.53587 10.5192 3.26821 7.63696 6.34111C8.10616 6.44644 8.54582 6.64114 8.92884 6.88292C9.0597 6.9667 9.18339 7.05527 9.30308 7.14624C12.214 4.21458 16.2476 2.40084 20.7066 2.40084L20.7073 2.40005H35.5811C35.8396 2.09683 36.1022 1.80797 36.3671 1.53587Z" fill="white"></path><path d="M30.7939 43.7928C30.7939 43.8167 30.7963 43.8414 30.7971 43.8654C30.6606 44.0784 30.2808 44.2516 29.9145 44.2516H27.7433C26.8911 44.2516 26.1977 43.5574 26.1977 42.7044C26.1977 41.0869 26.7084 40.8132 27.2486 40.522C27.3396 40.4733 27.4273 40.4254 27.5087 40.3776C27.7034 40.2603 27.8367 40.0632 27.8726 39.8389C27.9085 39.6147 27.8431 39.3857 27.6939 39.2141C27.4345 38.9165 27.1752 38.5566 26.9254 38.18C27.5526 38.2231 28.1982 38.2143 28.8604 38.1513C29.6009 39.2708 30.5888 40.1214 31.6836 40.5443C30.7939 41.7748 30.7939 43.0786 30.7939 43.7928ZM41.6867 28.3158C41.6468 28.0501 41.6005 27.7796 41.543 27.5003C41.4393 27.004 41.2941 26.53 41.1129 26.0815C41.3826 26.4382 41.3826 26.4382 41.1129 26.0815C40.2168 23.8608 38.4255 22.2841 36.3053 21.8492C36.0683 22.3368 35.817 22.8147 35.5512 23.2807C38.0424 23.5065 39.5928 25.6682 40.0389 27.8139C40.7395 31.1796 39.8825 33.437 39.316 34.9308C38.9768 35.8229 38.7327 36.4676 39.0231 37.0477C39.5298 38.0579 39.7708 39.2126 39.7708 43.0363C39.7708 44.7344 38.581 45.3392 37.4671 45.3392H33.8763C32.9946 45.3392 32.3299 44.6737 32.3299 43.7928C32.3299 42.9573 32.3299 41.695 33.6888 40.6888C33.9553 40.4917 34.0655 40.1469 33.9617 39.8318C33.8572 39.5174 33.5636 39.3043 33.2324 39.3043C31.3357 39.3043 29.49 37.185 29.1182 34.5797C29.0583 34.1607 28.6689 33.8679 28.2492 33.9285C27.8295 33.9884 27.5375 34.377 27.5981 34.7975C27.6915 35.4518 27.8606 36.0782 28.0896 36.6639C25.9886 36.7493 24.1589 36.2059 22.5231 35.013C22.2901 34.843 21.9805 34.8183 21.7228 34.9491C21.4651 35.08 21.3023 35.3441 21.3023 35.633V43.7928C21.3023 44.6458 20.6089 45.3392 19.7559 45.3392H16.497C15.6432 45.3392 14.9498 44.6458 14.9498 43.7928C14.9498 42.9278 15.1629 42.2974 15.5818 41.9208C15.9066 41.6311 16.3821 41.4556 16.995 41.4013C17.4171 41.3638 17.7291 40.9904 17.6916 40.5683C17.6541 40.1462 17.2806 39.8342 16.8585 39.8717C16.4364 39.9092 16.051 39.9921 15.7007 40.1166V33.4083C15.1804 33.3117 14.6674 33.1928 14.1646 33.0492V34.7153C12.8736 34.8111 11.6352 35.6912 10.9545 36.2681C10.8436 36.3615 10.6968 36.4916 10.5388 36.6424C10.5092 36.5945 10.4813 36.5474 10.4486 36.5019C10.2443 36.2187 9.97223 35.9753 9.65464 35.8316C9.56847 35.7933 9.46713 35.783 9.36978 35.8125C9.15353 35.8771 9.03145 36.1037 9.09528 36.3208L9.11204 36.3743C9.18864 36.6336 9.25168 36.8538 9.29557 37.0764C9.34105 37.2951 9.37536 37.5121 9.39372 37.7212C9.40169 37.8257 9.40888 37.9231 9.40489 38.0053C9.4009 38.1178 9.39451 38.2295 9.37776 38.3396C9.34664 38.5606 9.29158 38.7769 9.21258 38.9843C8.8958 39.8142 8.17445 40.4725 7.33501 40.7127C6.91449 40.8308 6.47163 40.8611 6.03436 40.7885C5.59788 40.7167 5.16858 40.5499 4.78956 40.3065C4.02831 39.8198 3.48332 39.025 3.40831 38.2071C3.40352 38.1561 3.39794 38.1042 3.39794 38.0531L3.39554 37.9757L3.39873 37.8856C3.40591 37.7635 3.40272 37.6414 3.41629 37.5201C3.43065 37.398 3.43863 37.2759 3.45778 37.1554L3.52242 36.7924C3.62296 36.3088 3.78813 35.8348 3.9964 35.3752C4.41692 34.4568 5.03293 33.607 5.75906 32.8601C6.4836 32.11 7.32703 31.4621 8.2335 30.9578C8.49124 30.815 8.75536 30.6865 9.02267 30.5732C8.52714 30.2197 8.05237 29.8399 7.59833 29.4361C7.55125 29.46 7.50258 29.4816 7.4555 29.5063C6.37428 30.0713 5.40078 30.8038 4.5406 31.6592C3.68599 32.5194 2.9471 33.516 2.41646 34.6459C2.15234 35.21 1.94567 35.8101 1.8172 36.4325C1.78528 36.5881 1.76135 36.7461 1.73422 36.9025C1.71028 37.0597 1.69831 37.2201 1.68075 37.3789C1.664 37.5369 1.66559 37.698 1.65841 37.8584L1.65442 37.9789L1.65841 38.113C1.66001 38.2024 1.66878 38.2917 1.67676 38.3811C1.74618 39.0968 2.01509 39.7775 2.4021 40.3512C2.79389 40.9242 3.30298 41.3957 3.8767 41.7548C4.45202 42.1123 5.09836 42.3557 5.77662 42.4578C6.45487 42.5591 7.16585 42.5097 7.82495 42.2974C9.14954 41.8777 10.2316 40.8212 10.6864 39.5245C10.7845 39.2453 10.8532 38.9556 10.8955 38.662C10.9106 38.6205 10.9226 38.5758 10.9298 38.5303C11.1867 38.0268 12.8632 36.4229 14.1646 36.2546V41.2122C13.6691 41.8641 13.4138 42.7275 13.4138 43.7928C13.4138 45.4924 14.7966 46.8752 16.497 46.8752H19.7559C21.4555 46.8752 22.8383 45.4924 22.8383 43.7928V37.023C23.5014 37.3773 24.1956 37.651 24.9186 37.8465C24.9353 37.8904 24.9545 37.9326 24.9792 37.9741C25.2809 38.4681 25.616 39.0075 25.9727 39.5046C25.2713 40.0105 24.6616 40.8412 24.6616 42.7044C24.6616 44.4048 26.0437 45.7868 27.7433 45.7868H29.9145C30.3582 45.7868 30.8402 45.6695 31.2607 45.4397C31.8009 46.3071 32.7592 46.8752 33.8763 46.8752H37.4671C39.7277 46.8752 41.3068 45.2969 41.3068 43.0363C41.3068 39.3785 41.1018 37.8082 40.4331 36.4333C40.4554 36.2554 40.619 35.8261 40.7515 35.4758C41.3005 34.0307 42.1886 31.6807 41.6867 28.3158Z" fill="#2D3448"></path><path d="M48.5747 22.0566C48.5747 23.0931 47.732 23.9357 46.6955 23.9357C45.6598 23.9357 44.8163 23.0931 44.8163 22.0566C44.8163 20.5812 45.3525 19.3547 46.3276 18.6022C47.0713 18.0277 48.0528 17.7357 49.1891 17.7357C49.4301 17.7357 49.6782 17.7492 49.9328 17.7756C49.0111 18.9701 48.5747 20.3601 48.5747 22.0566ZM52.2029 17.1013C52.1375 16.8244 51.9252 16.6074 51.6499 16.5356C49.1643 15.886 46.9405 16.1885 45.3885 17.387C44.0295 18.4371 43.2803 20.0952 43.2803 22.0566C43.2803 23.3979 44.0599 24.5573 45.1866 25.1159C45.0533 25.8484 45.0533 25.8484 45.1866 25.1159C45.6398 25.3393 46.1465 25.4694 46.6843 25.471C46.6883 25.471 46.6923 25.4718 46.6955 25.4718C48.5786 25.4718 50.1107 23.9397 50.1107 22.0566C50.1107 20.2763 50.682 18.9805 51.9627 17.8546C52.1766 17.6679 52.2684 17.3782 52.2029 17.1013Z" fill="#2D3448"></path><path d="M45.1866 25.116C44.9919 26.182 44.0583 26.9936 42.9371 26.9936C42.219 26.9936 41.5439 26.6528 41.113 26.0815C41.2942 26.5299 41.4394 27.0039 41.5431 27.5003C41.6006 27.7795 41.6469 28.0508 41.6868 28.3166C42.0841 28.4546 42.5063 28.5288 42.9371 28.5288C44.7836 28.5288 46.3284 27.2138 46.6843 25.4711C46.1465 25.4695 45.639 25.3394 45.1866 25.116Z" fill="#2D3448"></path></svg>